<svg width="45" height="62" viewBox="0 0 45 62" fill="none" xmlns="http://www.w3.org/2000/svg">
<path fill-rule="evenodd" clip-rule="evenodd" d="M1.63245 21.2153C0.100124 13.8069 -0.206261 -0.780884 1.63253 0.135625C2.52934 0.582624 4.06981 3.39614 5.87497 6.6931C7.77103 10.1561 9.95912 14.1524 12.0001 16.5C15.1414 15.889 30.8741 15.0336 34 16.5C36 10.5 42.2699 -1.33078 43.0054 0.135625C43.7409 1.60203 44.3065 13.5844 44 20C47.5 34.5 37.7189 62 25.0772 62C6.91892 62 1.63244 35 1.63245 21.2153ZM18.5083 51.2371C15.2658 50.3791 13.8048 47.6019 12.7701 45.6349L12.7697 45.6341C12.6975 45.4969 12.6274 45.3637 12.5589 45.2353C12.429 44.9917 12.5211 44.6888 12.7648 44.5588C13.0084 44.4288 13.3113 44.521 13.4412 44.7646C13.5046 44.8834 13.5685 45.0043 13.6332 45.1267L13.6339 45.1279C14.8977 47.5181 16.4743 50.5 20.6327 50.5C21.3773 50.5 21.8932 50.2984 22.2655 49.9979C22.6444 49.692 22.9164 49.2495 23.1069 48.7013C23.4913 47.5947 23.5 46.2003 23.5001 45.0331L23.5001 45C23.5001 44.9933 23.5002 44.9867 23.5005 44.9801C22.1015 44.2315 20.2852 41.6447 20.4093 40.4707C20.5164 39.4585 22.0354 39.7841 23.3804 40.0725C23.8277 40.1683 24.2558 40.2601 24.6063 40.2972C24.9759 40.3362 25.3986 40.3292 25.8182 40.3223C26.9929 40.3028 28.1434 40.2837 28.0383 41.2775C27.9088 42.5022 25.917 44.844 24.5002 45.1534C24.5013 46.2951 24.522 47.6325 24.8933 48.7013C25.0838 49.2495 25.3557 49.692 25.7347 49.9979C26.107 50.2984 26.6229 50.5 27.3674 50.5C31.5259 50.5 33.1025 47.5181 34.3663 45.1279L34.3673 45.1261C34.4319 45.0039 34.4957 44.8833 34.5589 44.7646C34.6889 44.521 34.9918 44.4288 35.2354 44.5588C35.4791 44.6888 35.5712 44.9917 35.4412 45.2353C35.3726 45.3639 35.3024 45.4975 35.2301 45.6349C34.1947 47.6031 32.7325 50.3826 29.4857 51.2388C29.3808 52.6804 28.998 54.7206 28.1521 56.4073C27.2649 58.1762 25.7863 59.6907 23.4897 59.4807C21.2356 59.2746 19.9452 57.714 19.257 55.9798C18.6179 54.3695 18.4596 52.5343 18.5083 51.2371ZM23.5001 50.1264C23.3302 50.3656 23.1299 50.5853 22.8935 50.7761C22.3187 51.24 21.5719 51.5 20.6327 51.5C20.2364 51.5 19.8602 51.4758 19.5029 51.4301C19.4759 52.6169 19.6365 54.2252 20.1864 55.6109C20.7971 57.1497 21.8431 58.326 23.5808 58.4849C25.2759 58.6398 26.4505 57.5694 27.2582 55.9589C27.9782 54.5234 28.3415 52.7655 28.466 51.4341C28.118 51.4772 27.7522 51.5 27.3674 51.5C26.4283 51.5 25.6815 51.24 25.1067 50.7761C24.8702 50.5853 24.67 50.3656 24.5001 50.1264V50.1295V50.1444V50.1594V50.1744V50.1894V50.2044V50.2195V50.2345V50.2496V50.2647V50.2798V50.2949V50.31V50.3252V50.3403V50.3555V50.3707V50.3859V50.4011V50.4163V50.4316V50.4468V50.4621V50.4774V50.4927V50.508V50.5233V50.5386V50.554V50.5693V50.5847V50.6V50.6154V50.6308V50.6462V50.6616V50.6771V50.6925V50.708V50.7234V50.7389V50.7543V50.7698V50.7853V50.8008V50.8163V50.8319V50.8474V50.8629V50.8785V50.894V50.9096V50.9251V50.9407V50.9563V50.9719V50.9875V51.0031V51.0187V51.0343V51.0499V51.0655V51.0811V51.0968V51.1124V51.128V51.1437V51.1593V51.175V51.1906V51.2063V51.222V51.2376V51.2533V51.269V51.2847V51.3004V51.316V51.3317V51.3474V51.3631V51.3788V51.3945V51.4102V51.4259V51.4416V51.4573V51.473V51.4887V51.5044V51.5201V51.5358V51.5515V51.5672V51.5829V51.5986V51.6143V51.63V51.6457V51.6614V51.6771V51.6928V51.7084V51.7241V51.7398V51.7555V51.7712V51.7868V51.8025V51.8182V51.8339V51.8495V51.8652V51.8808V51.8965V51.9121V51.9278V51.9434V51.959V51.9746V51.9903V52.0059V52.0215V52.0371V52.0527V52.0683V52.0839V52.0994V52.115V52.1306V52.1461V52.1617V52.1772V52.1927V52.2083V52.2238V52.2393V52.2548V52.2703V52.2858V52.3012V52.3167V52.3321V52.3476V52.363V52.3784V52.3939V52.4093V52.4247V52.44V52.4554V52.4708V52.4861V52.5014V52.5168V52.5321V52.5474V52.5627V52.5779V52.5932V52.6085V52.6237V52.6389V52.6541V52.6693V52.6845V52.6997V52.7148V52.73V52.7451V52.7602V52.7753V52.7904V52.8055V52.8205V52.8356V52.8506V52.8656V52.8806V52.8955V52.9105V52.9254V52.9403V52.9553V52.9701V52.985V52.9999V53.0147V53.0295V53.0443V53.0591V53.0738V53.0886V53.1033V53.118V53.1327V53.1474V53.162V53.1766V53.1912V53.2058V53.2204V53.2349V53.2495V53.264V53.2784V53.2929V53.3073V53.3217V53.3361V53.3505V53.3649V53.3792V53.3935V53.4078V53.422V53.4363V53.4505V53.4647V53.4788V53.493V53.5071V53.5212V53.5352V53.5493V53.5633V53.5773V53.5913V53.6052V53.6191V53.633V53.6469V53.6607V53.6745V53.6883V53.7021V53.7158V53.7295V53.7432V53.7568V53.7704V53.784V53.7976V53.8111V53.8246V53.8381V53.8516V53.865V53.8784V53.8918V53.9051V53.9184V53.9317V53.9449V53.9581V53.9713V53.9845V53.9976V54.0107V54.0237V54.0368V54.0498V54.0627V54.0757V54.0886V54.1014V54.1143V54.1271V54.1398V54.1526V54.1653V54.1779V54.1906V54.2032V54.2158V54.2283V54.2408V54.2533V54.2657V54.2781V54.2904V54.3028V54.3151V54.3273V54.3395V54.3517V54.3639V54.376V54.388V54.4001V54.4121V54.424V54.436V54.4479V54.4597V54.4715V54.4833V54.495V54.5067V54.5184V54.53V54.5416V54.5531V54.5646V54.5761V54.5875V54.5989V54.6102V54.6215V54.6328V54.644V54.6552V54.6663V54.6774V54.6885V54.6995V54.7105V54.7214V54.7323V54.7431V54.7539V54.7647V54.7754V54.7861V54.7967V54.8073V54.8179V54.8284V54.8388V54.8492V54.8596V54.8699V54.8802V54.8904V54.9006V54.9108V54.9209V54.9309V54.9409V54.9509V54.9608V54.9707V54.9805V54.9902V55C24.5001 55.2761 24.2762 55.5 24.0001 55.5C23.7239 55.5 23.5001 55.2761 23.5001 55V54.9902V54.9805V54.9707V54.9608V54.9509V54.9409V54.9309V54.9209V54.9108V54.9006V54.8904V54.8802V54.8699V54.8596V54.8492V54.8388V54.8284V54.8179V54.8073V54.7967V54.7861V54.7754V54.7647V54.7539V54.7431V54.7323V54.7214V54.7105V54.6995V54.6885V54.6774V54.6663V54.6552V54.644V54.6328V54.6215V54.6102V54.5989V54.5875V54.5761V54.5646V54.5531V54.5416V54.53V54.5184V54.5067V54.495V54.4833V54.4715V54.4597V54.4479V54.436V54.424V54.4121V54.4001V54.388V54.376V54.3639V54.3517V54.3395V54.3273V54.3151V54.3028V54.2904V54.2781V54.2657V54.2533V54.2408V54.2283V54.2158V54.2032V54.1906V54.1779V54.1653V54.1526V54.1398V54.1271V54.1143V54.1014V54.0886V54.0757V54.0627V54.0498V54.0368V54.0237V54.0107V53.9976V53.9845V53.9713V53.9581V53.9449V53.9317V53.9184V53.9051V53.8918V53.8784V53.865V53.8516V53.8381V53.8246V53.8111V53.7976V53.784V53.7704V53.7568V53.7432V53.7295V53.7158V53.7021V53.6883V53.6745V53.6607V53.6469V53.633V53.6191V53.6052V53.5913V53.5773V53.5633V53.5493V53.5352V53.5212V53.5071V53.493V53.4788V53.4647V53.4505V53.4363V53.422V53.4078V53.3935V53.3792V53.3649V53.3505V53.3361V53.3217V53.3073V53.2929V53.2784V53.264V53.2495V53.2349V53.2204V53.2058V53.1912V53.1766V53.162V53.1474V53.1327V53.118V53.1033V53.0886V53.0738V53.0591V53.0443V53.0295V53.0147V52.9999V52.985V52.9701V52.9553V52.9403V52.9254V52.9105V52.8955V52.8806V52.8656V52.8506V52.8356V52.8205V52.8055V52.7904V52.7753V52.7602V52.7451V52.73V52.7148V52.6997V52.6845V52.6693V52.6541V52.6389V52.6237V52.6085V52.5932V52.5779V52.5627V52.5474V52.5321V52.5168V52.5014V52.4861V52.4708V52.4554V52.44V52.4247V52.4093V52.3939V52.3784V52.363V52.3476V52.3321V52.3167V52.3012V52.2858V52.2703V52.2548V52.2393V52.2238V52.2083V52.1927V52.1772V52.1617V52.1461V52.1306V52.115V52.0994V52.0839V52.0683V52.0527V52.0371V52.0215V52.0059V51.9903V51.9746V51.959V51.9434V51.9278V51.9121V51.8965V51.8808V51.8652V51.8495V51.8339V51.8182V51.8025V51.7868V51.7712V51.7555V51.7398V51.7241V51.7084V51.6928V51.6771V51.6614V51.6457V51.63V51.6143V51.5986V51.5829V51.5672V51.5515V51.5358V51.5201V51.5044V51.4887V51.473V51.4573V51.4416V51.4259V51.4102V51.3945V51.3788V51.3631V51.3474V51.3317V51.316V51.3004V51.2847V51.269V51.2533V51.2376V51.222V51.2063V51.1906V51.175V51.1593V51.1437V51.128V51.1124V51.0968V51.0811V51.0655V51.0499V51.0343V51.0187V51.0031V50.9875V50.9719V50.9563V50.9407V50.9251V50.9096V50.894V50.8785V50.8629V50.8474V50.8319V50.8163V50.8008V50.7853V50.7698V50.7543V50.7389V50.7234V50.708V50.6925V50.6771V50.6616V50.6462V50.6308V50.6154V50.6V50.5847V50.5693V50.554V50.5386V50.5233V50.508V50.4927V50.4774V50.4621V50.4468V50.4316V50.4163V50.4011V50.3859V50.3707V50.3555V50.3403V50.3252V50.31V50.2949V50.2798V50.2647V50.2496V50.2345V50.2195V50.2044V50.1894V50.1744V50.1594V50.1444V50.1295V50.1264ZM17.0001 31.5C17.0001 32.3284 16.3285 33 15.5001 33C14.6717 33 14.0001 32.3284 14.0001 31.5C14.0001 30.6716 14.6717 30 15.5001 30C16.3285 30 17.0001 30.6716 17.0001 31.5ZM30.5001 33C31.3285 33 32.0001 32.3284 32.0001 31.5C32.0001 30.6715 31.3285 30 30.5001 30C29.6717 30 29.0001 30.6715 29.0001 31.5C29.0001 32.3284 29.6717 33 30.5001 33Z" fill="white"/>
</svg>
